# xmcd CD database file
#
# Track frame offsets:
#	150
#	17397
#	43112
#	57710
#	76460
#	97757
#	117418
#	135124
#	146276
#	161484
#	183496
#	200465
#
# Disc length: 2865 seconds
#
# Revision: 0
# Processed by: cddbd v1.5.1PL0 Copyright (c) Steve Scherf et al.
# Submitted via: CDex 1.40Release
#
DISCID=960b2f0c
DTITLE=Lambchop - No, You C'mon
DYEAR=2004
DGENRE=Country
TTITLE0=Sunrise
TTITLE1=Low Ambition
TTITLE2=There's Still Time
TTITLE3=Nothing Adventurous Please
TTITLE4=The Problem
TTITLE5=Shang a Dang Dang
TTITLE6=About My Lighter
TTITLE7=Under a Dream of a Lie
TTITLE8=Jan
TTITLE9=The Gusher
TTITLE10=Listen
TTITLE11=The Producer
EXTD=YEAR: 2004 ID3G: 2
EXTT0=
EXTT1=
EXTT2=
EXTT3=
EXTT4=
EXTT5=
EXTT6=
EXTT7=
EXTT8=
EXTT9=
EXTT10=
EXTT11=
PLAYORDER=
